<svg version="1.1" viewBox="0.0 0.0 619.2335958005249 464.4251968503937" fill="none" stroke="none" stroke-linecap="square" stroke-miterlimit="10" xmlns:xlink="http://www.w3.org/1999/xlink" xmlns="http://www.w3.org/2000/svg"><clipPath id="p.0"><path d="m0 0l619.2336 0l0 464.4252l-619.2336 0l0 -464.4252z" clip-rule="nonzero"/></clipPath><g clip-path="url(#p.0)"><path fill="#000000" fill-opacity="0.0" d="m0 0l619.2336 0l0 464.4252l-619.2336 0z" fill-rule="evenodd"/><path fill="#ffcf44" fill-opacity="0.9274" d="m60.996754 41.403633l0 0c6.7377205 -22.865917 30.453617 -35.059685 52.970936 -27.235548l216.22134 75.13086c10.813202 3.7572784 19.898193 11.722702 25.256409 22.143959c5.358185 10.421257 6.550659 22.444702 3.315094 33.425293l-48.797394 165.60464c-6.737732 22.865906 -30.453613 35.059692 -52.970947 27.235565l-216.22134 -75.13086c-22.517323 -7.8241425 -35.30922 -32.703354 -28.5715 -55.569275z" fill-rule="evenodd"/><path stroke="#ffcf44" stroke-width="1.0" stroke-linejoin="round" stroke-linecap="butt" d="m60.996754 41.403633l0 0c6.7377205 -22.865917 30.453617 -35.059685 52.970936 -27.235548l216.22134 75.13086c10.813202 3.7572784 19.898193 11.722702 25.256409 22.143959c5.358185 10.421257 6.550659 22.444702 3.315094 33.425293l-48.797394 165.60464c-6.737732 22.865906 -30.453613 35.059692 -52.970947 27.235565l-216.22134 -75.13086c-22.517323 -7.8241425 -35.30922 -32.703354 -28.5715 -55.569275z" fill-rule="evenodd"/><path fill="#1eb980" d="m302.66177 49.077892l0 0c6.3724365 -21.630861 28.805328 -33.164295 50.105255 -25.760645l207.11804 71.992165c10.228577 3.555359 18.822632 11.091515 23.89148 20.950607c5.0688477 9.8591 6.1973267 21.233513 3.137207 31.621025l-46.151794 156.65985c-6.3723755 21.63086 -28.805298 33.164307 -50.105225 25.76065l-207.11804 -71.99216l0 0c-21.299957 -7.403656 -33.401108 -30.94078 -27.028687 -52.57164z" fill-rule="evenodd"/><path stroke="#1eb980" stroke-width="1.0" stroke-linejoin="round" stroke-linecap="butt" d="m302.66177 49.077892l0 0c6.3724365 -21.630861 28.805328 -33.164295 50.105255 -25.760645l207.11804 71.992165c10.228577 3.555359 18.822632 11.091515 23.89148 20.950607c5.0688477 9.8591 6.1973267 21.233513 3.137207 31.621025l-46.151794 156.65985c-6.3723755 21.63086 -28.805298 33.164307 -50.105225 25.76065l-207.11804 -71.99216l0 0c-21.299957 -7.403656 -33.401108 -30.94078 -27.028687 -52.57164z" fill-rule="evenodd"/><path fill="#045d56" d="m95.7152 148.42017l0 0c6.3724213 -21.63086 28.805305 -33.16429 50.105263 -25.760643l207.11801 71.992165c10.228607 3.555359 18.822632 11.091522 23.89148 20.950607c5.068878 9.8591 6.197357 21.23352 3.137207 31.621017l-46.151764 156.65987c-6.372406 21.63086 -28.805298 33.164276 -50.105255 25.76062l-207.11804 -71.99216l0 0c-21.299946 -7.403656 -33.4011 -30.940765 -27.028679 -52.571625z" fill-rule="evenodd"/><path stroke="#045d56" stroke-width="1.0" stroke-linejoin="round" stroke-linecap="butt" d="m95.7152 148.42017l0 0c6.3724213 -21.63086 28.805305 -33.16429 50.105263 -25.760643l207.11801 71.992165c10.228607 3.555359 18.822632 11.091522 23.89148 20.950607c5.068878 9.8591 6.197357 21.23352 3.137207 31.621017l-46.151764 156.65987c-6.372406 21.63086 -28.805298 33.164276 -50.105255 25.76062l-207.11804 -71.99216l0 0c-21.299946 -7.403656 -33.4011 -30.940765 -27.028679 -52.571625z" fill-rule="evenodd"/><path fill="#ff6859" d="m325.17767 160.45271l0 0c6.3724365 -21.630875 28.805328 -33.1643 50.105286 -25.76065l207.11804 71.99216c10.228577 3.555359 18.82257 11.091522 23.89148 20.950623c5.0688477 9.859085 6.1973267 21.233505 3.137146 31.621017l-46.151733 156.65985c-6.3724365 21.63086 -28.805298 33.164276 -50.105286 25.76065l-207.11801 -71.99219l0 0c-21.299957 -7.4036255 -33.401093 -30.940765 -27.028687 -52.571625z" fill-rule="evenodd"/><path stroke="#ff6859" stroke-width="1.0" stroke-linejoin="round" stroke-linecap="butt" d="m325.17767 160.45271l0 0c6.3724365 -21.630875 28.805328 -33.1643 50.105286 -25.76065l207.11804 71.99216c10.228577 3.555359 18.82257 11.091522 23.89148 20.950623c5.0688477 9.859085 6.1973267 21.233505 3.137146 31.621017l-46.151733 156.65985c-6.3724365 21.63086 -28.805298 33.164276 -50.105286 25.76065l-207.11801 -71.99219l0 0c-21.299957 -7.4036255 -33.401093 -30.940765 -27.028687 -52.571625z" fill-rule="evenodd"/></g></svg>